<svg width="72" height="72" viewBox="0 0 72 72" fill="none" xmlns="http://www.w3.org/2000/svg">
<g filter="url(#filter0_di_2576_11334)">
<rect x="4" width="64" height="64" rx="24" fill="url(#paint0_linear_2576_11334)"/>
</g>
<path d="M37.2121 40.0121C37.5374 39.6857 37.7 39.2817 37.7 38.8C37.7 38.3183 37.5368 37.9149 37.2104 37.5896C36.884 37.2643 36.4805 37.1011 36 37.1C35.5195 37.0989 35.116 37.2621 34.7896 37.5896C34.4632 37.9171 34.3 38.3206 34.3 38.8C34.3 39.2794 34.4632 39.6834 34.7896 40.0121C35.116 40.3408 35.5195 40.5034 36 40.5C36.4805 40.4966 36.8846 40.3351 37.2121 40.0121ZM34.3 33.7H37.7V23.5H34.3V33.7ZM36 49C33.6483 49 31.4383 48.5535 29.37 47.6604C27.3017 46.7673 25.5025 45.5564 23.9725 44.0275C22.4425 42.4986 21.2315 40.6995 20.3396 38.63C19.4477 36.5605 19.0011 34.3505 19 32C18.9989 29.6495 19.4454 27.4395 20.3396 25.37C21.2338 23.3005 22.4448 21.5014 23.9725 19.9725C25.5002 18.4436 27.2994 17.2327 29.37 16.3396C31.4406 15.4465 33.6506 15 36 15C38.3494 15 40.5594 15.4465 42.63 16.3396C44.7006 17.2327 46.4998 18.4436 48.0275 19.9725C49.5552 21.5014 50.7667 23.3005 51.6621 25.37C52.5574 27.4395 53.0034 29.6495 53 32C52.9966 34.3505 52.55 36.5605 51.6604 38.63C50.7707 40.6995 49.5598 42.4986 48.0275 44.0275C46.4952 45.5564 44.6961 46.7679 42.63 47.6621C40.5639 48.5563 38.3539 49.0023 36 49Z" fill="white"/>
<defs>
<filter id="filter0_di_2576_11334" x="0" y="-1" width="72" height="73" filterUnits="userSpaceOnUse" color-interpolation-filters="sRGB">
<feFlood flood-opacity="0" result="BackgroundImageFix"/>
<feColorMatrix in="SourceAlpha" type="matrix" values="0 0 0 0 0 0 0 0 0 0 0 0 0 0 0 0 0 0 127 0" result="hardAlpha"/>
<feOffset dy="4"/>
<feGaussianBlur stdDeviation="2"/>
<feComposite in2="hardAlpha" operator="out"/>
<feColorMatrix type="matrix" values="0 0 0 0 0 0 0 0 0 0 0 0 0 0 0 0 0 0 0.25 0"/>
<feBlend mode="normal" in2="BackgroundImageFix" result="effect1_dropShadow_2576_11334"/>
<feBlend mode="normal" in="SourceGraphic" in2="effect1_dropShadow_2576_11334" result="shape"/>
<feColorMatrix in="SourceAlpha" type="matrix" values="0 0 0 0 0 0 0 0 0 0 0 0 0 0 0 0 0 0 127 0" result="hardAlpha"/>
<feOffset dx="-1" dy="-1"/>
<feGaussianBlur stdDeviation="2"/>
<feComposite in2="hardAlpha" operator="arithmetic" k2="-1" k3="1"/>
<feColorMatrix type="matrix" values="0 0 0 0 0 0 0 0 0 0 0 0 0 0 0 0 0 0 0.25 0"/>
<feBlend mode="normal" in2="shape" result="effect2_innerShadow_2576_11334"/>
</filter>
<linearGradient id="paint0_linear_2576_11334" x1="4.25242" y1="-3.99508e-07" x2="67.7476" y2="64" gradientUnits="userSpaceOnUse">
<stop stop-color="#DB5A3A"/>
<stop offset="1" stop-color="#DC5540"/>
</linearGradient>
</defs>
</svg>
